<svg width="24" height="24" viewBox="0 0 24 24" fill="none" xmlns="http://www.w3.org/2000/svg">
<rect width="24" height="24" fill="#1E1E1E"/>
<g id="Bangkok" clip-path="url(#clip0_5983_1877)">
<rect width="1920" height="9951" transform="translate(-846 -9687)" fill="black"/>
<rect id="Rectangle 1" x="-846" y="-8710" width="1920" height="10758" fill="#070707"/>
<rect id="Rectangle 37" x="-846" y="-509" width="1920" height="781" fill="#0F0F0F"/>
<g id="Group 1171275189">
</g>
<g id="Frame 1171277510">
<g id="Group 1171275188">
<path id="image" d="M256.85 47.5H-29.8497C-30.1094 38.4157 -37.4226 31.0955 -46.5 30.8353V-7.83533C-37.4226 -8.09545 -30.1094 -15.4157 -29.8497 -24.5H256.85C257.109 -15.4157 264.423 -8.09545 273.5 -7.83533V30.8353C264.423 31.0955 257.109 38.4157 256.85 47.5Z" stroke="#D8B56B" stroke-opacity="0.23"/>
<g id="Group 1171275186">
<g id="eCommerce / Store" clip-path="url(#clip1_5983_1877)">
<g id="Icon Frame">
<path id="Vector" d="M1 23H3.44444M23 23H20.5556M3.44444 23H20.5556M3.44444 23V8.73468M20.5556 23V8.73468M3.44444 8.73468C3.39921 8.70855 3.35462 8.68086 3.31073 8.6516L2.65029 8.21131C1.68849 7.5701 1.30731 6.34283 1.73662 5.26956L2.8298 2.5366C3.20103 1.60855 4.09987 1 5.09941 1H18.9006C19.9001 1 20.799 1.60855 21.1702 2.5366L22.2634 5.26956C22.6927 6.34283 22.3115 7.5701 21.3497 8.21131L20.6893 8.6516C20.6454 8.68086 20.6008 8.70855 20.5556 8.73468M3.44444 8.73468C4.24546 9.19743 5.2454 9.16973 6.0226 8.6516L8.33333 7.11111L10.6441 8.6516C11.4652 9.19899 12.5348 9.19899 13.3559 8.6516L15.6667 7.11111L17.9774 8.6516C18.7546 9.16973 19.7545 9.19743 20.5556 8.73468" stroke="#D8B56B" stroke-linecap="round" stroke-linejoin="round"/>
<path id="Rectangle 31" d="M15 23V17C15 15.8954 14.1046 15 13 15H11C9.89543 15 9 15.8954 9 17V23" stroke="#D8B56B"/>
</g>
</g>
</g>
</g>
</g>
</g>
<defs>
<clipPath id="clip0_5983_1877">
<rect width="1920" height="9951" fill="white" transform="translate(-846 -9687)"/>
</clipPath>
<clipPath id="clip1_5983_1877">
<rect width="24" height="24" fill="white"/>
</clipPath>
</defs>
</svg>
